<svg width="333" height="68" viewBox="0 0 333 68" fill="none" xmlns="http://www.w3.org/2000/svg">
<g filter="url(#filter0_d_81_69)">
<path d="M0 20C0 8.9543 8.95431 0 20 0H313C324.046 0 333 8.95431 333 20V48C333 59.0457 324.046 68 313 68H20C8.95431 68 0 59.0457 0 48V20Z" fill="#FFB800"/>
<path d="M30.6426 35.4727C29.3104 35.4727 28.2305 34.3927 28.2305 33.0605C28.2305 31.7284 29.3104 30.6484 30.6426 30.6484H34.4609C37.9019 30.6484 40.6914 33.4379 40.6914 36.8789V38.6593C40.6914 40.8294 39.8389 42.9799 37.9297 44.0117C37.1807 44.4166 36.3434 44.7994 35.418 45.1602C33.1263 46.0456 30.8021 46.4883 28.4453 46.4883C25.4505 46.4883 22.8398 45.8633 20.6133 44.6133C18.3867 43.3503 16.7135 41.5534 15.5938 39.2227C14.474 36.8789 13.9141 34.3333 13.9141 31.5859C13.9141 28.6042 14.5391 25.9544 15.7891 23.6367C17.0391 21.319 18.8685 19.5417 21.2773 18.3047C23.1133 17.3542 25.3984 16.8789 28.1328 16.8789C31.6875 16.8789 34.4609 17.6276 36.4531 19.125C37.6474 20.0091 38.5876 21.0963 39.2738 22.3868C40.0711 23.8863 38.9403 25.555 37.2711 25.8673C35.7443 26.1529 34.3238 25.1423 33.3043 23.9704C33.008 23.6298 32.6709 23.3232 32.293 23.0508C31.1862 22.2305 29.7995 21.8203 28.1328 21.8203C25.6068 21.8203 23.5951 22.6211 22.0977 24.2227C20.6133 25.8242 19.8711 28.2005 19.8711 31.3516C19.8711 34.75 20.6263 37.3021 22.1367 39.0078C23.6471 40.7005 25.6263 41.5469 28.0742 41.5469C29.2852 41.5469 30.4961 41.3125 31.707 40.8438C32.5015 40.531 33.222 40.1771 33.8683 39.7821C34.5112 39.3892 34.8516 38.6646 34.8516 37.9112C34.8516 36.5644 33.7598 35.4727 32.413 35.4727H30.6426Z" fill="white"/>
<path d="M56.9029 41.4725C57.8689 40.5215 59.0252 39.5679 60.3621 39.7923C61.9931 40.0661 63.0176 41.7903 62.018 43.1079C61.4838 43.8119 60.8593 44.4114 60.1445 44.9062C58.6341 45.9479 56.7396 46.4688 54.4609 46.4688C50.8542 46.4688 48.1849 45.2904 46.4531 42.9336C45.0859 41.0456 44.4023 38.6628 44.4023 35.7852C44.4023 32.3477 45.3008 29.6589 47.0977 27.7188C48.8945 25.7656 51.1667 24.7891 53.9141 24.7891C57 24.7891 59.4349 25.8112 61.2188 27.8555C61.8857 28.615 62.4226 29.5264 62.8292 30.5899C64.1637 34.0797 60.7849 37.2109 57.0487 37.2109H54.1527C51.8905 37.2109 49.8162 39.3618 51.3555 41.0195C52.2018 41.918 53.2565 42.3672 54.5195 42.3672C55.3789 42.3672 56.1016 42.1328 56.6875 41.6641C56.7616 41.6048 56.8334 41.5409 56.9029 41.4725ZM54.4225 33.8516C56.5638 33.8516 58.5744 31.7889 57.0977 30.2383C56.3164 29.4049 55.3659 28.9883 54.2461 28.9883C53.0482 28.9883 52.0586 29.4245 51.2773 30.2969C49.8641 31.875 51.8326 33.8516 53.951 33.8516H54.4225Z" fill="white"/>
<path d="M75.9062 25.2578C76.9418 25.2578 77.7812 26.0973 77.7812 27.1328V27.7578C77.7812 28.7933 76.9418 29.6328 75.9062 29.6328C74.8707 29.6328 74.0312 30.4723 74.0312 31.5078V37.9922C74.0312 39.6849 74.0638 40.6745 74.1289 40.9609C74.207 41.2344 74.3698 41.4622 74.6172 41.6445C74.8776 41.8268 75.1901 41.918 75.5547 41.918C76.7145 41.918 77.8842 42.5031 78.0111 43.656L78.0581 44.0829C78.1605 45.0128 77.6463 45.9221 76.7377 46.1449C75.8568 46.3608 74.9091 46.4688 73.8945 46.4688C72.9049 46.4688 72.013 46.306 71.2188 45.9805C70.4245 45.6419 69.8385 45.2122 69.4609 44.6914C69.0964 44.1576 68.8424 43.4414 68.6992 42.543C68.582 41.9049 68.5234 40.6159 68.5234 38.6758V30.8926C68.5234 30.1968 67.9594 29.6328 67.2637 29.6328C66.5679 29.6328 66.0039 29.0688 66.0039 28.373V26.5176C66.0039 25.8218 66.5679 25.2578 67.2637 25.2578C67.9594 25.2578 68.5234 24.6938 68.5234 23.998V22.6417C68.5234 21.7099 69.019 20.8485 69.8244 20.3801L70.012 20.2711C71.7951 19.2341 74.0312 20.5204 74.0312 22.5832V23.3828C74.0312 24.4183 74.8707 25.2578 75.9062 25.2578Z" fill="white"/>
<path d="M91.918 39.5816C91.4094 38.0335 92.6295 36.554 94.2513 36.3964C95.7598 36.2497 97.0435 37.335 97.7343 38.684C98.0683 39.3361 98.4811 39.8737 98.9727 40.2969C100.014 41.1823 101.414 41.625 103.172 41.625C105.034 41.625 106.434 41.2344 107.371 40.4531C108.322 39.6589 108.797 38.7344 108.797 37.6797C108.797 37.0026 108.595 36.4297 108.191 35.9609C107.801 35.4792 107.111 35.0625 106.121 34.7109C105.444 34.4766 103.901 34.0599 101.492 33.4609C98.3932 32.6927 96.2188 31.7487 94.9688 30.6289C93.2109 29.0534 92.332 27.1328 92.332 24.8672C92.332 23.4089 92.7422 22.0482 93.5625 20.7852C94.3958 19.5091 95.5872 18.5391 97.1367 17.875C98.6992 17.2109 100.581 16.8789 102.781 16.8789C106.375 16.8789 109.077 17.6667 110.887 19.2422C111.956 20.1659 112.727 21.271 113.2 22.5573C113.785 24.1463 112.395 25.6106 110.703 25.6849C109.146 25.7533 107.94 24.5276 107.003 23.2827C106.817 23.0353 106.607 22.8213 106.375 22.6406C105.568 21.9896 104.35 21.6641 102.723 21.6641C101.043 21.6641 99.7279 22.0091 98.7773 22.6992C98.1654 23.1419 97.8594 23.7344 97.8594 24.4766C97.8594 25.1536 98.1458 25.7331 98.7188 26.2148C99.4479 26.8268 101.219 27.4648 104.031 28.1289C106.844 28.793 108.921 29.4831 110.262 30.1992C111.616 30.9023 112.671 31.8724 113.426 33.1094C114.194 34.3333 114.578 35.8503 114.578 37.6602C114.578 39.3008 114.122 40.8372 113.211 42.2695C112.299 43.7018 111.01 44.7695 109.344 45.4727C107.677 46.1628 105.6 46.5078 103.113 46.5078C99.4935 46.5078 96.7135 45.6745 94.7734 44.0078C93.4678 42.8774 92.5159 41.402 91.918 39.5816Z" fill="white"/>
<path d="M127.039 25.2578C128.075 25.2578 128.914 26.0973 128.914 27.1328V27.7578C128.914 28.7933 128.075 29.6328 127.039 29.6328C126.004 29.6328 125.164 30.4723 125.164 31.5078V37.9922C125.164 39.6849 125.197 40.6745 125.262 40.9609C125.34 41.2344 125.503 41.4622 125.75 41.6445C126.01 41.8268 126.323 41.918 126.688 41.918C127.847 41.918 129.017 42.5031 129.144 43.656L129.191 44.0829C129.293 45.0128 128.779 45.9221 127.87 46.1449C126.99 46.3608 126.042 46.4688 125.027 46.4688C124.038 46.4688 123.146 46.306 122.352 45.9805C121.557 45.6419 120.971 45.2122 120.594 44.6914C120.229 44.1576 119.975 43.4414 119.832 42.543C119.715 41.9049 119.656 40.6159 119.656 38.6758V30.8926C119.656 30.1968 119.092 29.6328 118.396 29.6328C117.701 29.6328 117.137 29.0688 117.137 28.373V26.5176C117.137 25.8218 117.701 25.2578 118.396 25.2578C119.092 25.2578 119.656 24.6938 119.656 23.998V22.6417C119.656 21.7099 120.152 20.8485 120.957 20.3801L121.145 20.2711C122.928 19.2341 125.164 20.5204 125.164 22.5832V23.3828C125.164 24.4183 126.004 25.2578 127.039 25.2578Z" fill="white"/>
<path d="M137.963 29.7199C136.995 30.5479 135.902 31.4196 134.649 31.1935C133.144 30.922 132.148 29.3684 132.977 28.0842C133.461 27.3357 134.047 26.7191 134.734 26.2344C136.102 25.2708 138.133 24.7891 140.828 24.7891C143.276 24.7891 145.099 25.082 146.297 25.668C147.495 26.2409 148.335 26.9766 148.816 27.875C149.311 28.7604 149.559 30.3945 149.559 32.7773L149.5 39.1836C149.5 41.0065 149.585 42.3542 149.754 43.2266C150.037 44.5617 149.161 46 147.796 46H146.943C145.964 46 145.091 45.3977 144.816 44.4583C144.808 44.4321 144.801 44.4056 144.793 44.3789C144.707 44.073 144.342 43.9821 144.102 44.1901C143.309 44.8772 142.471 45.4088 141.59 45.7852C140.522 46.2409 139.383 46.4688 138.172 46.4688C136.036 46.4688 134.35 45.8893 133.113 44.7305C131.889 43.5716 131.277 42.1068 131.277 40.3359C131.277 39.1641 131.557 38.1224 132.117 37.2109C132.677 36.2865 133.458 35.5833 134.461 35.1016C135.477 34.6068 136.935 34.1771 138.836 33.8125C141.008 33.4046 142.615 33.0201 143.657 32.6589C143.97 32.5504 144.168 32.2494 144.168 31.918C144.168 30.8633 143.908 30.1146 143.387 29.6719C142.866 29.2161 141.883 28.9883 140.438 28.9883C139.461 28.9883 138.699 29.1836 138.152 29.5742C138.088 29.6187 138.025 29.6673 137.963 29.7199ZM144.168 37.1328C144.168 36.5947 143.639 36.2081 143.118 36.3446C142.501 36.5065 141.738 36.6846 140.828 36.8789C139.305 37.2044 138.309 37.5234 137.84 37.8359C137.124 38.3438 136.766 38.9883 136.766 39.7695C136.766 40.5378 137.052 41.2018 137.625 41.7617C138.198 42.3216 138.927 42.6016 139.812 42.6016C140.802 42.6016 141.746 42.276 142.645 41.625C143.309 41.1302 143.745 40.5247 143.953 39.8086C144.096 39.3398 144.168 38.4479 144.168 37.1328Z" fill="white"/>
<path d="M160.242 43.2559C160.242 44.7714 159.014 46 157.498 46C155.982 46 154.754 44.7714 154.754 43.2559V27.8066C154.754 26.399 155.895 25.2578 157.303 25.2578H159.193C159.557 25.2578 159.852 25.5525 159.852 25.9159C159.852 26.5768 160.758 26.8496 161.195 26.3541C161.548 25.9551 161.881 25.6548 162.195 25.4531C162.898 25.0104 163.693 24.7891 164.578 24.7891C165.184 24.7891 165.779 24.8701 166.364 25.0323C167.483 25.3427 167.911 26.6125 167.523 27.7068L167.418 28.0011C166.946 29.3319 165.326 29.7109 163.914 29.7109C163.146 29.7109 162.495 29.9258 161.961 30.3555C161.427 30.7721 161.004 31.5339 160.691 32.6406C160.392 33.7474 160.242 36.0651 160.242 39.5938V43.2559Z" fill="white"/>
<path d="M178.211 25.2578C179.246 25.2578 180.086 26.0973 180.086 27.1328V27.7578C180.086 28.7933 179.246 29.6328 178.211 29.6328C177.175 29.6328 176.336 30.4723 176.336 31.5078V37.9922C176.336 39.6849 176.368 40.6745 176.434 40.9609C176.512 41.2344 176.674 41.4622 176.922 41.6445C177.182 41.8268 177.495 41.918 177.859 41.918C179.019 41.918 180.189 42.5031 180.316 43.656L180.363 44.0829C180.465 45.0128 179.951 45.9221 179.042 46.1449C178.161 46.3608 177.214 46.4688 176.199 46.4688C175.21 46.4688 174.318 46.306 173.523 45.9805C172.729 45.6419 172.143 45.2122 171.766 44.6914C171.401 44.1576 171.147 43.4414 171.004 42.543C170.887 41.9049 170.828 40.6159 170.828 38.6758V30.8926C170.828 30.1968 170.264 29.6328 169.568 29.6328C168.873 29.6328 168.309 29.0688 168.309 28.373V26.5176C168.309 25.8218 168.873 25.2578 169.568 25.2578C170.264 25.2578 170.828 24.6938 170.828 23.998V22.6417C170.828 21.7099 171.324 20.8485 172.129 20.3801L172.317 20.2711C174.1 19.2341 176.336 20.5204 176.336 22.5832V23.3828C176.336 24.4183 177.175 25.2578 178.211 25.2578Z" fill="white"/>
<path d="M194.794 41.4725C195.76 40.5215 196.916 39.5679 198.253 39.7923C199.884 40.0661 200.908 41.7903 199.909 43.1079C199.374 43.8119 198.75 44.4114 198.035 44.9062C196.525 45.9479 194.63 46.4688 192.352 46.4688C188.745 46.4688 186.076 45.2904 184.344 42.9336C182.977 41.0456 182.293 38.6628 182.293 35.7852C182.293 32.3477 183.191 29.6589 184.988 27.7188C186.785 25.7656 189.057 24.7891 191.805 24.7891C194.891 24.7891 197.326 25.8112 199.109 27.8555C199.776 28.615 200.313 29.5264 200.72 30.5899C202.054 34.0797 198.675 37.2109 194.939 37.2109H192.043C189.781 37.2109 187.707 39.3618 189.246 41.0195C190.092 41.918 191.147 42.3672 192.41 42.3672C193.27 42.3672 193.992 42.1328 194.578 41.6641C194.652 41.6048 194.724 41.5409 194.794 41.4725ZM192.313 33.8516C194.454 33.8516 196.465 31.7889 194.988 30.2383C194.207 29.4049 193.257 28.9883 192.137 28.9883C190.939 28.9883 189.949 29.4245 189.168 30.2969C187.755 31.875 189.723 33.8516 191.842 33.8516H192.313Z" fill="white"/>
<path d="M225.184 43.4512C225.184 44.8588 224.042 46 222.635 46H220.825C220.417 46 220.086 45.6689 220.086 45.2606C220.086 44.5412 219.083 44.1887 218.531 44.65C218.078 45.029 217.593 45.3488 217.078 45.6094C215.932 46.1823 214.773 46.4688 213.602 46.4688C211.219 46.4688 209.174 45.5117 207.469 43.5977C205.776 41.6706 204.93 38.9883 204.93 35.5508C204.93 32.0352 205.757 29.3659 207.41 27.543C209.064 25.707 211.154 24.7891 213.68 24.7891C216.076 24.7891 219.695 23.1818 219.695 20.7854V20.1113C219.695 18.5958 220.924 17.3672 222.439 17.3672C223.955 17.3672 225.184 18.5958 225.184 20.1113V43.4512ZM210.535 35.1797C210.535 37.3932 210.841 38.9948 211.453 39.9844C212.339 41.4167 213.576 42.1328 215.164 42.1328C216.427 42.1328 217.501 41.599 218.387 40.5312C219.272 39.4505 219.715 37.8424 219.715 35.707C219.715 33.3242 219.285 31.612 218.426 30.5703C217.566 29.5156 216.466 28.9883 215.125 28.9883C213.823 28.9883 212.729 29.5091 211.844 30.5508C210.971 31.5794 210.535 33.1224 210.535 35.1797Z" fill="white"/>
<path d="M244.529 46C243.046 46 241.844 44.7976 241.844 43.3145V20.973C241.844 18.9816 243.458 17.3672 245.45 17.3672C246.704 17.3672 247.868 18.0192 248.524 19.0888L251.394 23.7721C253.613 27.392 259.188 25.8196 259.188 21.5739V20.0527C259.188 18.5695 260.39 17.3672 261.873 17.3672C263.356 17.3672 264.559 18.5695 264.559 20.0527V42.2755C264.559 44.3325 262.891 46 260.834 46C259.543 46 258.345 45.3318 257.666 44.234L254.861 39.6959C252.672 36.1562 247.215 37.7069 247.215 41.8685V43.3145C247.215 44.7976 246.012 46 244.529 46Z" fill="white"/>
<path d="M269.383 35.3359C269.383 33.513 269.832 31.7487 270.73 30.043C271.629 28.3372 272.898 27.0352 274.539 26.1367C276.193 25.2383 278.035 24.7891 280.066 24.7891C283.204 24.7891 285.776 25.8112 287.781 27.8555C289.786 29.8867 290.789 32.4583 290.789 35.5703C290.789 38.7083 289.773 41.3125 287.742 43.3828C285.724 45.4401 283.178 46.4688 280.105 46.4688C278.204 46.4688 276.388 46.0391 274.656 45.1797C272.938 44.3203 271.629 43.0638 270.73 41.4102C269.832 39.7435 269.383 37.7188 269.383 35.3359ZM275.008 35.6289C275.008 37.6862 275.496 39.2617 276.473 40.3555C277.449 41.4492 278.654 41.9961 280.086 41.9961C281.518 41.9961 282.716 41.4492 283.68 40.3555C284.656 39.2617 285.145 37.6732 285.145 35.5898C285.145 33.5586 284.656 31.9961 283.68 30.9023C282.716 29.8086 281.518 29.2617 280.086 29.2617C278.654 29.2617 277.449 29.8086 276.473 30.9023C275.496 31.9961 275.008 33.5716 275.008 35.6289Z" fill="white"/>
<path d="M301.571 46C300.024 46 298.655 44.9976 298.189 43.5226L293.446 28.5325C292.933 26.9108 294.144 25.2578 295.845 25.2578C296.968 25.2578 297.955 26.0022 298.264 27.082L298.44 27.6973C299.329 30.8092 303.756 30.7619 304.579 27.6316C304.947 26.2328 306.211 25.2578 307.658 25.2578H308.041C309.485 25.2578 310.745 26.2376 311.101 27.6373C311.894 30.7535 316.293 30.8299 317.193 27.7432L317.382 27.094C317.7 26.0059 318.697 25.2578 319.831 25.2578C321.56 25.2578 322.787 26.9417 322.259 28.5878L317.454 43.5535C316.985 45.0113 315.63 46 314.098 46H313.734C312.354 46 311.145 45.0699 310.788 43.7372C309.981 40.7237 305.697 40.7158 304.902 43.7326C304.55 45.0688 303.342 46 301.96 46H301.571Z" fill="white"/>
</g>
<defs>
<filter id="filter0_d_81_69" x="-4" y="0" width="341" height="76" filterUnits="userSpaceOnUse" color-interpolation-filters="sRGB">
<feFlood flood-opacity="0" result="BackgroundImageFix"/>
<feColorMatrix in="SourceAlpha" type="matrix" values="0 0 0 0 0 0 0 0 0 0 0 0 0 0 0 0 0 0 127 0" result="hardAlpha"/>
<feOffset dy="4"/>
<feGaussianBlur stdDeviation="2"/>
<feComposite in2="hardAlpha" operator="out"/>
<feColorMatrix type="matrix" values="0 0 0 0 0 0 0 0 0 0 0 0 0 0 0 0 0 0 0.25 0"/>
<feBlend mode="normal" in2="BackgroundImageFix" result="effect1_dropShadow_81_69"/>
<feBlend mode="normal" in="SourceGraphic" in2="effect1_dropShadow_81_69" result="shape"/>
</filter>
</defs>
</svg>
